<svg width="12" height="22" viewBox="0 0 12 22" fill="none" xmlns="http://www.w3.org/2000/svg">
<path d="M11.0991 0.9207L8.55328 0.916504C5.69314 0.916504 3.84478 2.8645 3.84478 5.87955V8.16784H1.28507C1.06388 8.16784 0.884766 8.35205 0.884766 8.57926V11.8947C0.884766 12.122 1.06409 12.306 1.28507 12.306H3.84478V20.672C3.84478 20.8992 4.0239 21.0832 4.24509 21.0832H7.58479C7.80598 21.0832 7.98509 20.899 7.98509 20.672V12.306H10.978C11.1992 12.306 11.3783 12.122 11.3783 11.8947L11.3795 8.57926C11.3795 8.47017 11.3372 8.36568 11.2623 8.28848C11.1873 8.21127 11.0852 8.16784 10.979 8.16784H7.98509V6.22803C7.98509 5.29567 8.20138 4.82236 9.38371 4.82236L11.0987 4.82173C11.3197 4.82173 11.4988 4.63753 11.4988 4.41052V1.33191C11.4988 1.10511 11.3199 0.92112 11.0991 0.9207Z" fill="#8E0038"/>
</svg>
